/* XPM */
static char * tileset_xpm[] = {
"64 80 56 1",
" 	c None",
".	c #505050",
"+	c #FCFCFC",
"@	c #606060",
"#	c #C8C8C8",
"$	c #E0E0E0",
"%	c #A0A0A0",
"&	c #B4B4B4",
"*	c #909090",
"=	c #141414",
"-	c #000000",
";	c #2C2C2C",
">	c #383838",
",	c #444444",
"'	c #808080",
")	c #007878",
"!	c #006C6C",
"~	c #242400",
"{	c #303000",
"]	c #00B4B4",
"^	c #005454",
"/	c #006060",
"(	c #181800",
"_	c #006C00",
":	c #009000",
"<	c #6C0000",
"[	c #005400",
"}	c #008400",
"|	c #009C00",
"1	c #600000",
"2	c #540000",
"3	c #00A800",
"4	c #B400B4",
"5	c #C000C0",
"6	c #780078",
"7	c #00B400",
"8	c #A800A8",
"9	c #480048",
"0	c #240000",
"a	c #009090",
"b	c #606000",
"c	c #002424",
"d	c #003C3C",
"e	c #008484",
"f	c #484800",
"g	c #006000",
"h	c #180000",
"i	c #C0C000",
"j	c #848400",
"k	c #A8A800",
"l	c #545400",
"m	c #6C6C00",
"n	c #9C9C00",
"o	c #600060",
"p	c #000024",
"q	c #002400",
"                   .+.    .+.                                   ",
"                   .+.    .+.                                   ",
"   @@ @@ @@        .+.    .+.      #########$        @@ @@ @@   ",
"  $$$$$$$$$$....   .+.    .+.     @#%%%%%%%%$@  ....##########  ",
"  #%&&&&&&&$++++   $$$$$$$$$#     @#%******&$@  ++++$%%%%%%%%#  ",
"  #%*%%%%%&$....  @$&&&&&&&%#@     #%*....%&$   ....$&******%#  ",
"  #%*....%&$      @$&%%%%%*%#@    @#%*.==.%&$@      $&%....*%#  ",
"  #%*.==.%&$       $&%....*%#     @#%*.==.%&$@      $&%.==.*%#  ",
"  #%*.==.%&$      @$&%.==.*%#@     #%*....%&$       $&%.==.*%#  ",
"  #%*....%&$      @$&%.==.*%#@    @#%*%%%%%&$@      $&%....*%#  ",
"  #%******&$....   $&%....*%#     @#%&&&&&&&$@  ....$&%%%%%*%#  ",
"  #%%%%%%%%$++++  @$&******%#@     #$$$$$$$$$   ++++$&&&&&&&%#  ",
"  ##########....  @$%%%%%%%%#@     .+.    .+.   ....$$$$$$$$$$  ",
"   @@ @@ @@        $#########      .+.    .+.        @@ @@ @@   ",
"                                   .+.    .+.                   ",
"                                   .+.    .+.                   ",
"-=;>>,>>>>,>>;=-***************')))))))))))))))!~{~~~~~~~~~{{{{~",
"=;,>,,>>,>,,>>;=*''''''''''''''@)]]!!]!!]!!]!]]^~~{{~~{{~{~~~~~~",
";>>>>,>>>>>>>>>;*'&&&''''''&&&'@)]^^^^^^^^^^^/]^~~~~~~~~~{{~{{~{",
">>,>,>>>>,>>,>,,*'&+%''''''&+%'@)!^!!!!!!!!!!)!^~~~{~~{~{~~{~~{{",
">,>,>>>,>>>>>>>,*'%%%''''''%%%'@)]^!!!!!!!!!!)]^~{~~~{~{{~{{{~~~",
">,,>>,,>>>,>>>>,*''''''''''''''@)!^!!!!!!!!!!)!^~{~~{~~~~~{~{{~~",
">>>,>>>,,,>>>,>>*''''''''''''''@)!^!!!!!!!!!!)!^~{{~{~{{{~~~~{~{",
">>>>>>,>>>>,,>,>*''''''''''''''@)]^!!!!!!!!!!)]^~{~~~{~~~~{~{~~~",
">,,>,>>>>,>>>>>,*''''''''''''''@)!^!!!!!!!!!!)!^~~~{{~~{~{{~~{~~",
">,,>>,>>>>>,>,>>*''''''''''''''@)!^!!!!!!!!!!)!^~{~~{~~~{{~~{{~~",
">>,,>>,>>,>>>,>,*''''''''''''''@)]^!!!!!!!!!!)]^~{~~{~{~~~{~~~~{",
",>,,>>>>>>,>,>>>*'&&&''''''&&&'@)!^!!!!!!!!!!)!^{~~{~~{~{~{~{{~~",
">>>,>>>,>>>,>>,>*'&+%''''''&+%'@)!^!!!!!!!!!!)!^~{~{~{~{{~~{~~{{",
";>,>,,>,>,,>,>>;*'%%%''''''%%%'@)]/)))))))))))]^~~~~~~{{~~{~~{~~",
"=;>>>>>>>>,>>>;=*''''''''''''''@)]]]!!]!!]!!]]]^~{~{~~~{~{~{{~~{",
"-=;>,>,,>>>>>;=-'@@@@@@@@@@@@@@.!^^^^^^^^^^^^^^^~~~~~{{{~{~~~~{~",
"~~~~{~~~~~~~~~~~~{~~~~((((~{{{{~~((((((((((((((~~~{{~~{~~~{~{~{~",
"({~{~{{~{{{{~~~{~~{{~~((((~~~~~~{~(((((((((((({~{~~{~~~~~~~~{~~(",
"((~~~~~~~{~~~~{~~~~~~~(((({~{{~{~~{((((((((((~~~{~{~~{{~{{~{~{((",
"((({{~~{~~~~{~{~~~~{~~((((~{~~{{{{~~(((((((({~{~{~{~{{~{~{~{~(((",
"((((({{{~{{~~~~~~{~~~~(((({{{~~~~~{{(((((((({~~{{~~{{~~~~~~(((((",
"(((((((((~~~~~~~~{~~{~(((({~{{~~{~~~~(((((({~~{~~~{~{{~(((((((((",
"((((((((((((((((~{{~{~((((~~~{~{~~{{~(((((({~~{~((((((((((((((((",
"((((((((((((((((~{~~~((((((~{~~~~~{~~(((((({{~~~((((((((((((((((",
"((((((((((((((((~~~{{((((((~~{~~~~~{~((((((~~~{~((((((((((((((((",
"((((((((((((((((~{~~{((((((~{{~~{~{~~~((((~{~{{~((((((((((((((((",
"(((((((((~{{~{~~~{~~{((((((~~~~{~~{{~{((((~{~~{~~~~~~~~(((((((((",
"(((((~~~~~~{{~~{{~~{(((((((({{~~~~~{{{((((~~~~{~~~~~~{{~{{{(((((",
"(((~{~{~{~{{~{~{~{~{((((((((~~{{{{~~{~((((~~{~~~~{~{~~~~{~~{{(((",
"(({~{~{{~{{~~{~{~~~(((((((((({~~{~{{~{((((~~~~~~~{~~~~{~~~~~~~((",
"(~~{~~~~~~~~{~~{~{((((((((((((~{~~~~~~((((~~{{~~{~~~{{{{~{{~{~{(",
"~{~{~{~~~{~~{{~~~((((((((((((((~~{{{{~((((~~~~{~~~~~~~~~~~~{~~~~",
"   __::::::__                   <<<<<<<<<<<<<<<<~{~~~~~~~~~{{{{~",
"  [}:||||||:}[                  <11111111111111<~~{{~~{{~{~~~~~~",
" [2:|333333|:2[   455555555556  <12222222222221<~~~~~~~~~{{~{{~{",
"_}:2377777732:}_  588888888889  <12000000000021<~~~aaaaaaaaaa~{{",
"_:|327bbbb723|:_  588888888889  <12000000000021<~{~accdd//eea~~~",
":|377bffffb773|:  58888g888889  <1200hhhhhh0021<~{~accdd//eea{~~",
":|37bijffjib73|:  5888ggg88889  <1200hhhhhh0021<~{{accdd//eea{~{",
":|37bkiffikb73|:  5888g_gg8889  <1200hhhhhh0021<~{~accdd//eea~~~",
":|37blmllmjb73|:  588[g__g8889  <1200hhhhhh0021<~~~accdd//eea{~~",
":|37bllnnllb73|:  588gggggg889  <1200hhhhhh0021<~{~accdd//eea{~~",
":|377bliilb773|:  588888888889  <1200hhhhhh0021<~{~accdd//eea~~{",
"_:|327bbbb723|:_  588888888889  <12000000000021<{~~accdd//eea{~~",
"_}:2377777732:}_  588888888889  <12000000000021<~{~aaaaaaaaaa~{{",
" [2:|333333|:2[   o99999999999  <12222222222221<~~~~~~{{~~{~~{~~",
"  [}:||||||:}[                  <11111111111111<~{~{~~~{~{~{{~~{",
"   __::::::__                   <<<<<<<<<<<<<<<<~~~~~{{{~{~~~~{~",
"ppppppppppppppppqqqqqqqqqqqqqqqq<<<<<<<<<<<<<<<<----------------",
"ppppppppppppppppqqqqqqqqqqqqqqqq<<<<<<<<<<<<<<<<----------------",
"ppppppppppppppppqqqqqqqqqqqqqqqq<<<<<<<<<<<<<<<<----------------",
"ppppppppppppppppqqqqqqqqqqqqqqqq<<<<<<<<<<<<<<<<----------------",
"ppppppppppppppppqqqqqqqqqqqqqqqq<<<<<<<<<<<<<<<<----------------",
"ppppppppppppppppqqqqqqqqqqqqqqqq<<<<<<<<<<<<<<<<----------------",
"ppppppppppppppppqqqqqqqqqqqqqqqq<<<<<<<<<<<<<<<<----------------",
"ppppppppppppppppqqqqqqqqqqqqqqqq<<<<<<<<<<<<<<<<----------------",
"ppppppppppppppppqqqqqqqqqqqqqqqq<<<<<<<<<<<<<<<<----------------",
"ppppppppppppppppqqqqqqqqqqqqqqqq<<<<<<<<<<<<<<<<----------------",
"ppppppppppppppppqqqqqqqqqqqqqqqq<<<<<<<<<<<<<<<<----------------",
"ppppppppppppppppqqqqqqqqqqqqqqqq<<<<<<<<<<<<<<<<----------------",
"ppppppppppppppppqqqqqqqqqqqqqqqq<<<<<<<<<<<<<<<<----------------",
"ppppppppppppppppqqqqqqqqqqqqqqqq<<<<<<<<<<<<<<<<----------------",
"ppppppppppppppppqqqqqqqqqqqqqqqq<<<<<<<<<<<<<<<<----------------",
"ppppppppppppppppqqqqqqqqqqqqqqqq<<<<<<<<<<<<<<<<----------------"};
