#define font3x5_width 64
#define font3x5_height 48
#define font3x5_x_hot 3
#define font3x5_y_hot 5
static unsigned char font3x5_bits[] = {
  0x27, 0x77, 0x75, 0x77, 0x77, 0x27, 0x77, 0x75, 0x35, 0x44, 0x15, 0x41,
  0x55, 0x35, 0x44, 0x15, 0x25, 0x77, 0x77, 0x47, 0x77, 0x25, 0x77, 0x77,
  0x25, 0x41, 0x44, 0x45, 0x45, 0x25, 0x41, 0x44, 0x77, 0x77, 0x74, 0x47,
  0x77, 0x77, 0x77, 0x74, 0x00, 0x00, 0x00, 0x00, 0x00, 0x00, 0x00, 0x00,
  0x77, 0x77, 0x27, 0x77, 0x75, 0x77, 0x77, 0x27, 0x41, 0x55, 0x35, 0x44,
  0x15, 0x41, 0x55, 0x35, 0x47, 0x77, 0x25, 0x77, 0x77, 0x47, 0x77, 0x25,
  0x45, 0x45, 0x25, 0x41, 0x44, 0x45, 0x45, 0x25, 0x47, 0x77, 0x77, 0x77,
  0x74, 0x47, 0x77, 0x77, 0x00, 0x00, 0x00, 0x00, 0x00, 0x00, 0x00, 0x00,
  0x20, 0x55, 0x56, 0x27, 0x14, 0x02, 0x00, 0x40, 0x20, 0x75, 0x41, 0x25,
  0x22, 0x27, 0x00, 0x40, 0x20, 0x20, 0x22, 0x07, 0x22, 0x72, 0x70, 0x20,
  0x00, 0x70, 0x14, 0x05, 0x22, 0x27, 0x02, 0x10, 0x20, 0x50, 0x53, 0x07,
  0x14, 0x02, 0x02, 0x12, 0x00, 0x00, 0x00, 0x00, 0x00, 0x00, 0x00, 0x00,
  0x27, 0x77, 0x75, 0x77, 0x77, 0x00, 0x04, 0x21, 0x35, 0x44, 0x15, 0x41,
  0x55, 0x22, 0x72, 0x52, 0x25, 0x77, 0x77, 0x47, 0x77, 0x00, 0x01, 0x44,
  0x25, 0x41, 0x44, 0x45, 0x45, 0x22, 0x72, 0x22, 0x77, 0x77, 0x74, 0x47,
  0x77, 0x20, 0x04, 0x21, 0x00, 0x00, 0x00, 0x00, 0x00, 0x00, 0x00, 0x00,
  0x27, 0x73, 0x73, 0x77, 0x75, 0x56, 0x51, 0x75, 0x55, 0x15, 0x15, 0x11,
  0x25, 0x54, 0x71, 0x55, 0x75, 0x17, 0x75, 0x13, 0x27, 0x34, 0x51, 0x55,
  0x51, 0x15, 0x15, 0x51, 0x25, 0x55, 0x51, 0x57, 0x57, 0x73, 0x73, 0x71,
  0x75, 0x56, 0x57, 0x75, 0x00, 0x00, 0x00, 0x00, 0x00, 0x00, 0x00, 0x00,
  0x77, 0x77, 0x57, 0x55, 0x55, 0x67, 0x31, 0x02, 0x55, 0x15, 0x52, 0x55,
  0x55, 0x24, 0x21, 0x05, 0x57, 0x77, 0x52, 0x75, 0x72, 0x22, 0x22, 0x00,
  0x71, 0x43, 0x52, 0x75, 0x25, 0x21, 0x24, 0x00, 0x71, 0x75, 0x72, 0x62,
  0x25, 0x67, 0x34, 0x70, 0x00, 0x00, 0x00, 0x00, 0x00, 0x00, 0x00, 0x00,
  0x21, 0x73, 0x73, 0x77, 0x75, 0x57, 0x51, 0x75, 0x52, 0x15, 0x15, 0x11,
  0x25, 0x52, 0x71, 0x55, 0x70, 0x17, 0x75, 0x13, 0x27, 0x32, 0x51, 0x55,
  0x50, 0x15, 0x15, 0x51, 0x25, 0x52, 0x51, 0x57, 0x50, 0x73, 0x73, 0x71,
  0x75, 0x53, 0x57, 0x75, 0x00, 0x00, 0x00, 0x00, 0x00, 0x00, 0x00, 0x00,
  0x77, 0x77, 0x57, 0x55, 0x55, 0x47, 0x12, 0x04, 0x55, 0x15, 0x52, 0x55,
  0x55, 0x24, 0x22, 0x03, 0x57, 0x77, 0x52, 0x55, 0x72, 0x32, 0x60, 0x00,
  0x71, 0x43, 0x52, 0x75, 0x25, 0x21, 0x22, 0x00, 0x41, 0x75, 0x72, 0x62,
  0x25, 0x47, 0x12, 0x00, 0x00, 0x00, 0x00, 0x00, 0x00, 0x00, 0x00, 0x00 };
