/* XPM */
static char * logo_xpm[] = {
"200 50 2 1",
" 	c None",
".	c #C04000",
"                  ....................                ..........................................          ......................................          ..................................            ",
"              ..........................              ..........................................         ........................................         ....................................          ",
"           ..............................             ..........................................        ..........................................        .....................................         ",
"          .................................           ..........................................       ............................................       .......................................       ",
"         ...................................          ..........................................      ..............................................      ........................................      ",
"        .....................................         ..........................................     ................................................     .........................................     ",
"       .......................................         .........................................    ..................................................    ..........................................    ",
"       .......................................         .........................................    ..................................................    ..........................................    ",
"      .........................................        ...........               ...............    ..................................................    ...........................................   ",
"     ..................        ................         ........                  ..............    ..................................................    ............               ................   ",
"     ................            ..............         .......                    .............     ................................................     ............                 ..............   ",
"     ...............              .............          .....                     .............                     ...............                      ............                  .............   ",
"     ..............               ............                                     .............                     ...............                      ............                  .............   ",
"    ..............                ............                                     .............                     ...............                      ............                   ............   ",
"    ..............                 ..........                                      .............                     ...............                      ............                   ............   ",
"    .............                                                                  .............                     ...............                      ............                    ...........   ",
"    .............                                                                  .............                     ...............                      ............                    ...........   ",
"    .............                                                                  .............                     ...............                      ............                    ...........   ",
"    .............                                                                  .............                     ...............                      ............                    ...........   ",
"    .............                                                                  .............                     ...............                      ............                    ...........   ",
"    .............                                                                  .............                     ...............                      ............                    ...........   ",
"    .............                                                                  .............                     ...............                      ............                    ...........   ",
"    .............                                                                  .............                     ...............                      ............                    ...........   ",
"    .............                                                                  .............                     ...............                      ............                    ...........   ",
"    .............                                                                  .............                     ...............                      ............                    ...........   ",
"    .............                                                                  .............                     ...............                      ............                    ...........   ",
"    .............                                                                  .............                     ...............                      ............                    ...........   ",
"    .............                                                                  .............                     ...............                      ............                    ...........   ",
"    .............                                                                  .............                     ...............                      ............                    ...........   ",
"    .............                                                                  .............                     ...............                      ............                    ...........   ",
"    .............           ..............                                         .............                     ...............                      ............                    ...........   ",
"    .............         ..................                                       .............                     ...............                      ............                    ...........   ",
"    .............         ...................                                      .............                     ...............                      ............                    ...........   ",
"    .............         ....................                                     .............                     ...............                      ............                    ...........   ",
"    .............         ....................                                     .............                     ...............                      ............                   ............   ",
"    .............         ....................         ..........                 ..............                     ...............                      ............                   ............   ",
"    ..............        ....................        ............                ..............                     ...............                      ............                  .............   ",
"    ...............       ....................        ............               ..............                      ...............                      ............                 ..............   ",
"     ...............      ....................       .............              ...............                      ...............                      ............                ...............   ",
"     .........................................       ..............            ................      ................................................     ............              .................   ",
"      ........................................       ................        ..................     ..................................................    ...........................................   ",
"       .......................................       .........................................      ..................................................    ...........................................   ",
"       .......................................        .......................................       ..................................................    ..........................................    ",
"        .....................................         .......................................       ..................................................    .........................................     ",
"         ...................................           .....................................         ................................................     ........................................      ",
"         ..................................             ...................................           ..............................................      .......................................       ",
"           ...............................               .................................             ............................................       ......................................        ",
"            .............................                  ..............................               ..........................................        .....................................         ",
"              ..........................                    ..........................                   ........................................         ....................................          ",
"                 .....................                        ....................                        ......................................          ..................................            "};
