#define loser_width 16
#define loser_height 6
static unsigned char loser_bits[] = {
   0xf1, 0xee, 0x91, 0x22, 0x91, 0x66, 0x91, 0x2c, 0x91, 0x28, 0xf7, 0xee };
