#define title_width 16
#define title_height 6
static unsigned char title_bits[] = {
   0x77, 0x37, 0x41, 0x52, 0x41, 0x52, 0x45, 0x52, 0x55, 0x52, 0x77, 0x37 };
