#define winner_width 16
#define winner_height 6
static unsigned char winner_bits[] = {
   0xa2, 0x4b, 0x22, 0x59, 0x22, 0x79, 0x2a, 0x69, 0x2a, 0x49, 0x9c, 0x4b };
